<svg width="416" height="234" viewBox="0 0 416 234" fill="none" xmlns="http://www.w3.org/2000/svg">
<rect width="416" height="234" fill="#F3F7FF"/>
<rect width="416" height="234" fill="black" fill-opacity="0.03"/>
<path d="M234.717 129.854L226.37 110.334C224.85 106.761 222.583 104.734 219.997 104.601C217.437 104.467 214.957 106.254 213.063 109.667L207.997 118.761C206.93 120.681 205.41 121.827 203.757 121.961C202.076 122.121 200.396 121.241 199.036 119.507L198.45 118.761C196.556 116.387 194.21 115.241 191.81 115.481C189.41 115.721 187.356 117.374 185.996 120.067L181.383 129.267C179.73 132.601 179.89 136.467 181.836 139.614C183.783 142.761 187.17 144.654 190.876 144.654H224.903C228.477 144.654 231.81 142.867 233.783 139.881C235.81 136.894 236.13 133.134 234.717 129.854Z" fill="#A6C3FD"/>
<path d="M194.586 107.349C199.564 107.349 203.599 103.314 203.599 98.3361C203.599 93.3582 199.564 89.3228 194.586 89.3228C189.608 89.3228 185.573 93.3582 185.573 98.3361C185.573 103.314 189.608 107.349 194.586 107.349Z" fill="#A6C3FD"/>
</svg>
