<svg width="240" height="240" viewBox="0 0 240 240" fill="none" xmlns="http://www.w3.org/2000/svg">
<rect x="0.5" y="0.5" width="239" height="239" rx="11.5" fill="#F8F8F8"/>
<rect x="0.5" y="0.5" width="239" height="239" rx="11.5" stroke="#919298" stroke-dasharray="4 6"/>
<path d="M58.6519 127.98V121.113H51.8201V118.812H58.6519V111.98H60.9528V118.812H67.8201V121.113H60.9528V127.98H58.6519Z" fill="#919298"/>
<path d="M82.8361 115.3C82.8166 118.455 84.3986 121.638 87.133 122.957L85.8048 124.695C83.8908 123.728 82.5138 121.863 81.7619 119.617C80.9904 122.019 79.5451 124.011 77.5236 125.027L76.1955 123.289C79.0373 121.941 80.6583 118.562 80.6681 115.3V112.488H82.8361V115.3ZM88.1876 128.718V111.062H90.3556V117.976H93.0705V119.832H90.3556V128.718H88.1876ZM100.562 114.656C100.562 116.853 102.066 119.001 104.878 119.871L103.765 121.57C101.763 120.925 100.308 119.597 99.4974 117.917C98.7064 119.744 97.2025 121.199 95.1126 121.921L93.9994 120.203C96.8412 119.265 98.3548 116.98 98.3744 114.656V114.148H94.5658V112.41H104.273V114.148H100.562V114.656ZM96.89 128.367V122.722H99.0775V126.609H109.058V128.367H96.89ZM106.382 123.894V111.082H108.57V123.894H106.382ZM129.822 111.062V117.957H132.439V119.773H129.822V128.679H127.654V111.062H129.822ZM115.896 123.855C120.193 121.707 122.517 118.718 122.947 114.695H116.853V112.898H125.154C125.144 118.083 122.996 122.644 117.127 125.535L115.896 123.855ZM148.134 111.062V128.718H145.966V121.472H142.821V119.675H145.966V117.742H142.821V115.964H145.966V111.062H148.134ZM133.134 123.757C135.936 122.39 137.587 118.972 137.606 115.75V114.578H133.817V112.8H143.544V114.578H139.813V115.75C139.813 118.523 141.493 121.921 144.247 123.308L142.958 124.968C141.024 123.982 139.56 121.96 138.769 119.656C138.017 122.185 136.542 124.333 134.56 125.417L133.134 123.757ZM158.692 112.058C162.481 112.068 165.283 113.953 165.274 116.824C165.283 119.47 163.008 121.238 159.766 121.56V124.792H166.797V126.57H150.664V124.792H157.617V121.56C154.414 121.238 152.139 119.47 152.149 116.824C152.139 113.953 154.932 112.068 158.692 112.058ZM154.277 116.824C154.268 118.728 156.113 119.871 158.692 119.871C161.309 119.871 163.145 118.728 163.145 116.824C163.145 114.978 161.309 113.806 158.692 113.816C156.113 113.806 154.268 114.978 154.277 116.824ZM182.745 111.062V128.718H180.558V111.062H182.745ZM168.117 123.855C172.745 121.658 174.874 118.669 175.265 114.656H169.015V112.937H177.472C177.472 118.191 175.431 122.654 169.249 125.593L168.117 123.855Z" fill="#919298"/>
</svg>
