<svg width="180" height="180" viewBox="0 0 180 180" fill="none" xmlns="http://www.w3.org/2000/svg">
<rect x="0.375" y="0.375" width="179.25" height="179.25" rx="8.625" fill="#F8F8F8"/>
<rect x="0.375" y="0.375" width="179.25" height="179.25" rx="8.625" stroke="#919298" stroke-width="0.75" stroke-dasharray="3 4.5"/>
<path d="M51.9736 95.2344V90.7277H47.4902V89.2178H51.9736V84.7344H53.4836V89.2178H57.9902V90.7277H53.4836V95.2344H51.9736Z" fill="#919298"/>
<path d="M68.3534 87.6523C68.3416 89.5098 69.4256 91.4141 70.9901 92.1758L70.2987 93.0664C69.1561 92.4688 68.2713 91.2969 67.8084 89.8965C67.3397 91.3848 66.4198 92.6445 65.2245 93.2656L64.533 92.3633C66.1444 91.5898 67.2342 89.5742 67.2401 87.6523V85.8594H68.3534V87.6523ZM71.7752 95.4805V84.9805H72.8885V89.1641H74.576V90.1133H72.8885V95.4805H71.7752ZM79.0005 87.1719C79.0005 88.5312 80.0025 89.8086 81.6255 90.3242L81.0513 91.1914C79.8443 90.793 78.9361 89.9668 78.4556 88.918C77.9869 90.0605 77.0494 90.9629 75.8013 91.4023L75.2271 90.5234C76.8619 89.9668 77.8697 88.6074 77.8755 87.1719V86.7148H75.5201V85.8125H81.3091V86.7148H79.0005V87.1719ZM76.9498 95.2578V91.9297H78.0748V94.3555H84.1334V95.2578H76.9498ZM82.7037 92.6562V84.9922H83.817V92.6562H82.7037ZM96.6504 84.9805V89.1641H98.2793V90.0898H96.6504V95.4688H95.5371V84.9805H96.6504ZM88.4824 92.668C91.1133 91.3555 92.543 89.457 92.7715 87.0078H89.0098V86.082H93.9082C93.8965 89.1172 92.5605 91.8301 89.1035 93.5352L88.4824 92.668ZM107.637 84.9805V95.4805H106.524V91.0625H104.509V90.1367H106.524V88.8359H104.509V87.9102H106.524V84.9805H107.637ZM98.778 92.6328C100.366 91.8477 101.491 89.8262 101.497 87.9336V86.9492H99.1765V86.0352H104.93V86.9492H102.622V87.9336C102.622 89.5801 103.747 91.5781 105.317 92.3633L104.649 93.2188C103.501 92.6211 102.563 91.373 102.089 89.9609C101.632 91.5078 100.688 92.832 99.5163 93.4766L98.778 92.6328ZM114.054 85.6133C116.298 85.6191 117.933 86.7266 117.933 88.4023C117.933 89.9727 116.562 91.0215 114.605 91.1797V93.2422H118.882V94.168H109.273V93.2422H113.503V91.1797C111.558 91.0215 110.181 89.9727 110.187 88.4023C110.181 86.7266 111.822 85.6191 114.054 85.6133ZM111.265 88.4023C111.265 89.5801 112.437 90.3125 114.054 90.3242C115.683 90.3125 116.849 89.5801 116.855 88.4023C116.849 87.2656 115.683 86.5156 114.054 86.5273C112.437 86.5156 111.265 87.2656 111.265 88.4023ZM128.404 84.9805V95.4805H127.279V84.9805H128.404ZM119.779 92.668C122.569 91.3379 123.934 89.4453 124.151 86.9961H120.283V86.1055H125.276C125.276 89.1816 123.969 91.8418 120.365 93.5703L119.779 92.668Z" fill="#919298"/>
</svg>
