<svg width="180" height="180" viewBox="0 0 180 180" fill="none" xmlns="http://www.w3.org/2000/svg">
<rect x="0.375" y="0.375" width="179.25" height="179.25" rx="8.625" fill="#F8F8F8"/>
<rect x="0.375" y="0.375" width="179.25" height="179.25" rx="8.625" stroke="#919298" stroke-width="0.75" stroke-dasharray="3 4.5"/>
<path d="M51.9736 95.2344V90.7277H47.4902V89.2178H51.9736V84.7344H53.4836V89.2178H57.9902V90.7277H53.4836V95.2344H51.9736Z" fill="#919298"/>
<path d="M74.3182 93.2305V94.168H64.7088V93.2305H74.3182ZM65.5291 86.9023V85.9883H73.4393V86.9023H71.8338V90.4062H73.4041V91.2969H65.5526V90.4062H67.1229V86.9023H65.5291ZM68.2245 90.4062H70.744V86.9023H68.2245V90.4062ZM84.7193 93.2891V94.2266H75.1099V93.2891H79.3404V91.4492H76.2818V88.1094H82.4459V86.6328H76.2584V85.7188H83.5474V89H77.3834V90.5352H83.7935V91.4492H80.442V93.2891H84.7193ZM92.4016 85.2031V91.3086H91.347V88.5547H89.8821V87.6523H91.347V85.2031H92.4016ZM85.4876 90.3125C86.8821 89.7559 87.6145 88.4492 87.6087 87.2305V86.7148H85.7454V85.8125H90.4446V86.7148H88.6868V87.2305C88.6868 88.3613 89.3841 89.5566 90.7141 90.1016L90.1516 90.957C89.1966 90.5645 88.5345 89.8438 88.1712 88.9824C87.7962 89.9492 87.0989 90.7637 86.0852 91.1914L85.4876 90.3125ZM87.3274 92.7266V91.8242H94.4641V95.4805H93.3626V92.7266H87.3274ZM93.4095 91.3906V84.9805H94.4641V91.3906H93.4095ZM104.432 90.5703V91.4609H97.1191V85.8477H104.326V86.75H98.2441V88.168H104.104V89.0469H98.2441V90.5703H104.432ZM95.9121 94.1562V93.2422H105.521V94.1562H95.9121ZM118.847 91.3086V92.2227H114.605V95.4922H113.503V92.2227H109.273V91.3086H118.847ZM109.835 89.6914C111.828 89.4395 113.433 88.3262 113.503 87.1484H110.175V86.2461H113.503V84.9805H114.605V86.2461H117.933V87.1484H114.617C114.675 88.3145 116.263 89.4395 118.261 89.6914L117.863 90.582C116.175 90.3477 114.74 89.5566 114.06 88.4844C113.38 89.5684 111.939 90.3477 110.246 90.582L109.835 89.6914ZM127.854 84.9805V89.1641H129.483V90.0898H127.854V95.4688H126.74V84.9805H127.854ZM119.686 92.668C122.317 91.3555 123.746 89.457 123.975 87.0078H120.213V86.082H125.111C125.1 89.1172 123.764 91.8301 120.307 93.5352L119.686 92.668Z" fill="#919298"/>
</svg>
