<svg width="240" height="174" viewBox="0 0 240 174" fill="none" xmlns="http://www.w3.org/2000/svg">
<rect x="0.5" y="0.5" width="239" height="173" rx="11.5" fill="#F8F8F8"/>
<rect x="0.5" y="0.5" width="239" height="173" rx="11.5" stroke="#919298" stroke-dasharray="4 6"/>
<path d="M58.6522 94.98V88.1127H51.8203V85.8118H58.6522V78.98H60.9531V85.8118H67.8203V88.1127H60.9531V94.98H58.6522Z" fill="#919298"/>
<path d="M92.6605 91.7729V93.5894H76.5277V91.7729H92.6605ZM77.8559 81.4409V79.7026H91.2543V81.4409H88.6762V87.0659H91.1957V88.7847H77.9145V87.0659H80.3949V81.4409H77.8559ZM82.5629 87.0659H86.5277V81.4409H82.5629V87.0659ZM109.996 91.8706V93.6675H93.8629V91.8706H100.816V88.9995H95.777V83.2183H105.933V81.0308H95.7379V79.2729H108.082V84.937H97.9449V87.2222H108.492V88.9995H102.964V91.8706H109.996ZM122.819 78.4331V88.7065H120.749V84.2534H118.542V82.4956H120.749V78.4331H122.819ZM111.061 86.8901C113.425 85.9624 114.538 83.853 114.538 81.8511V81.1479H111.569V79.4097H119.44V81.1479H116.647V81.8511C116.647 83.7358 117.692 85.6597 119.948 86.5581L118.854 88.2183C117.302 87.603 116.237 86.48 115.622 85.1226C114.997 86.646 113.874 87.9155 112.194 88.5894L111.061 86.8901ZM114.206 91.2651V89.5269H126.296V95.7183H124.128V91.2651H114.206ZM124.225 88.8237V78.062H126.296V88.8237H124.225ZM142.889 87.3198V89.0386H130.506V79.4487H142.732V81.2065H132.713V83.3354H142.322V85.0347H132.713V87.3198H142.889ZM128.533 93.5698V91.7925H144.666V93.5698H128.533ZM166.758 88.6675V90.4448H159.766V95.7378H157.618V90.4448H150.664V88.6675H166.758ZM151.543 85.8745C155.069 85.4448 157.383 83.6382 157.598 81.8706H152.149V80.1519H157.618V78.0815H159.766V80.1519H165.254V81.8706H159.805C160.01 83.6187 162.315 85.4448 165.84 85.8745L165.039 87.5933C162.12 87.2222 159.854 85.9429 158.711 84.2437C157.559 85.9624 155.264 87.2222 152.325 87.5933L151.543 85.8745ZM181.828 78.062V84.9565H184.445V86.7729H181.828V95.6792H179.66V78.062H181.828ZM167.902 90.855C172.199 88.7065 174.523 85.7183 174.953 81.6948H168.859V79.8979H177.16C177.15 85.0835 175.002 89.644 169.132 92.5347L167.902 90.855Z" fill="#919298"/>
</svg>
