<svg width="240" height="240" viewBox="0 0 240 240" fill="none" xmlns="http://www.w3.org/2000/svg">
<rect x="0.5" y="0.5" width="239" height="239" rx="11.5" fill="#F8F8F8"/>
<rect x="0.5" y="0.5" width="239" height="239" rx="11.5" stroke="#919298" stroke-dasharray="4 6"/>
<path d="M58.6522 127.98V121.113H51.8203V118.812H58.6522V111.98H60.9531V118.812H67.8203V121.113H60.9531V127.98H58.6522Z" fill="#919298"/>
<path d="M92.6605 124.773V126.589H76.5277V124.773H92.6605ZM77.8559 114.441V112.703H91.2543V114.441H88.6762V120.066H91.1957V121.785H77.9145V120.066H80.3949V114.441H77.8559ZM82.5629 120.066H86.5277V114.441H82.5629V120.066ZM109.996 124.871V126.667H93.8629V124.871H100.816V122H95.777V116.218H105.933V114.031H95.7379V112.273H108.082V117.937H97.9449V120.222H108.492V122H102.964V124.871H109.996ZM122.819 111.433V121.707H120.749V117.253H118.542V115.496H120.749V111.433H122.819ZM111.061 119.89C113.425 118.962 114.538 116.853 114.538 114.851V114.148H111.569V112.41H119.44V114.148H116.647V114.851C116.647 116.736 117.692 118.66 119.948 119.558L118.854 121.218C117.302 120.603 116.237 119.48 115.622 118.123C114.997 119.646 113.874 120.916 112.194 121.589L111.061 119.89ZM114.206 124.265V122.527H126.296V128.718H124.128V124.265H114.206ZM124.225 121.824V111.062H126.296V121.824H124.225ZM142.889 120.32V122.039H130.506V112.449H142.732V114.207H132.713V116.335H142.322V118.035H132.713V120.32H142.889ZM128.533 126.57V124.792H144.666V126.57H128.533ZM166.758 121.667V123.445H159.766V128.738H157.618V123.445H150.664V121.667H166.758ZM151.543 118.875C155.069 118.445 157.383 116.638 157.598 114.871H152.149V113.152H157.618V111.082H159.766V113.152H165.254V114.871H159.805C160.01 116.619 162.315 118.445 165.84 118.875L165.039 120.593C162.12 120.222 159.854 118.943 158.711 117.244C157.559 118.962 155.264 120.222 152.325 120.593L151.543 118.875ZM181.828 111.062V117.957H184.445V119.773H181.828V128.679H179.66V111.062H181.828ZM167.902 123.855C172.199 121.707 174.523 118.718 174.953 114.695H168.859V112.898H177.16C177.15 118.083 175.002 122.644 169.132 125.535L167.902 123.855Z" fill="#919298"/>
</svg>
