<svg width="240" height="240" viewBox="0 0 240 240" fill="none" xmlns="http://www.w3.org/2000/svg">
<rect x="0.5" y="0.5" width="239" height="239" rx="11.5" fill="#F8F8F8"/>
<rect x="0.5" y="0.5" width="239" height="239" rx="11.5" stroke="#919298" stroke-dasharray="4 6"/>
<path d="M58.6522 127.98V121.113H51.8203V118.812H58.6522V111.98H60.9531V118.812H67.8203V121.113H60.9531V127.98H58.6522Z" fill="#919298"/>
<path d="M92.6605 124.773V126.589H76.5277V124.773H92.6605ZM91.2543 112.703V114.441H88.6762V120.066H91.1957V121.785H77.9145V120.066H80.3949V114.441H77.8559V112.703H91.2543ZM82.5629 120.066H86.5277V114.441H82.5629V120.066ZM109.996 124.871V126.667H93.8629V124.871H100.816V122H95.777V116.218H105.933V114.031H95.7379V112.273H108.082V117.937H97.9449V120.222H108.492V122H102.964V124.871H109.996ZM122.819 111.433V121.707H120.749V117.253H118.542V115.496H120.749V111.433H122.819ZM116.647 114.851C116.647 116.746 117.702 118.66 119.948 119.558L118.854 121.218C117.292 120.613 116.237 119.48 115.632 118.113C114.987 119.646 113.864 120.906 112.194 121.589L111.061 119.89C113.425 118.953 114.538 116.863 114.538 114.851V114.148H111.569V112.41H119.44V114.148H116.647V114.851ZM126.296 111.062V121.824H124.225V111.062H126.296ZM126.296 122.527V128.718H124.128V124.265H114.206V122.527H126.296ZM142.889 120.32V122.039H130.506V112.449H142.732V114.207H132.713V116.335H142.322V118.035H132.713V120.32H142.889ZM144.666 124.792V126.57H128.533V124.792H144.666ZM153.848 111.921V117.253C156.182 117.224 158.467 117.068 160.938 116.609L161.192 118.367C158.36 118.914 155.782 119.07 153.106 119.07H151.641V111.921H153.848ZM165.45 111.062V120.32H163.282V115.183H158.594V113.445H163.282V111.062H165.45ZM165.801 121.199V122.878H153.086V121.199H158.36V119.636H160.528V121.199H165.801ZM159.434 123.445C162.559 123.464 164.473 124.402 164.493 126.062C164.473 127.761 162.559 128.699 159.434 128.699C156.348 128.699 154.395 127.761 154.395 126.062C154.395 124.402 156.348 123.464 159.434 123.445ZM159.434 125.027C157.598 125.007 156.543 125.378 156.543 126.062C156.543 126.785 157.598 127.156 159.434 127.156C161.27 127.156 162.305 126.785 162.305 126.062C162.305 125.378 161.27 125.007 159.434 125.027ZM182.746 111.062V128.718H180.558V111.062H182.746ZM177.472 112.937C177.472 118.191 175.441 122.664 169.25 125.593L168.117 123.855C172.736 121.658 174.884 118.669 175.265 114.656H169.015V112.937H177.472Z" fill="#919298"/>
</svg>
