<svg width="203" height="114" viewBox="0 0 203 114" fill="none" xmlns="http://www.w3.org/2000/svg">
<rect x="0.708984" y="0.375" width="201.917" height="113.25" rx="8.625" fill="#F8F8F8"/>
<rect x="0.708984" y="0.375" width="201.917" height="113.25" rx="8.625" stroke="#919298" stroke-width="0.75" stroke-dasharray="3 4.5"/>
<path d="M64.1514 62.25V57.7434H59.668V56.2334H64.1514V51.75H65.6613V56.2334H70.168V57.7434H65.6613V62.25H64.1514Z" fill="#919298"/>
<path d="M86.4959 60.2461V61.1836H76.8866V60.2461H86.4959ZM77.7069 53.918V53.0039H85.617V53.918H84.0116V57.4219H85.5819V58.3125H77.7303V57.4219H79.3006V53.918H77.7069ZM80.4022 57.4219H82.9217V53.918H80.4022V57.4219ZM96.897 60.3047V61.2422H87.2877V60.3047H91.5181V58.4648H88.4595V55.125H94.6236V53.6484H88.4361V52.7344H95.7252V56.0156H89.5611V57.5508H95.9712V58.4648H92.6197V60.3047H96.897ZM104.579 52.2188V58.3242H103.525V55.5703H102.06V54.668H103.525V52.2188H104.579ZM97.6653 57.3281C99.0598 56.7715 99.7923 55.4648 99.7864 54.2461V53.7305H97.9231V52.8281H102.622V53.7305H100.865V54.2461C100.865 55.377 101.562 56.5723 102.892 57.1172L102.329 57.9727C101.374 57.5801 100.712 56.8594 100.349 55.998C99.9739 56.9648 99.2766 57.7793 98.263 58.207L97.6653 57.3281ZM99.5052 59.7422V58.8398H106.642V62.4961H105.54V59.7422H99.5052ZM105.587 58.4062V51.9961H106.642V58.4062H105.587ZM116.609 57.5859V58.4766H109.297V52.8633H116.504V53.7656H110.422V55.1836H116.281V56.0625H110.422V57.5859H116.609ZM108.09 61.1719V60.2578H117.699V61.1719H108.09ZM131.025 58.3242V59.2383H126.783V62.5078H125.681V59.2383H121.451V58.3242H131.025ZM122.013 56.707C124.005 56.4551 125.611 55.3418 125.681 54.1641H122.353V53.2617H125.681V51.9961H126.783V53.2617H130.111V54.1641H126.794C126.853 55.3301 128.441 56.4551 130.439 56.707L130.04 57.5977C128.353 57.3633 126.917 56.5723 126.238 55.5C125.558 56.584 124.117 57.3633 122.423 57.5977L122.013 56.707ZM140.031 51.9961V56.1797H141.66V57.1055H140.031V62.4844H138.918V51.9961H140.031ZM131.863 59.6836C134.494 58.3711 135.924 56.4727 136.153 54.0234H132.391V53.0977H137.289C137.278 56.1328 135.942 58.8457 132.485 60.5508L131.863 59.6836Z" fill="#919298"/>
</svg>
