<svg width="34" height="34" viewBox="0 0 34 34" fill="none" xmlns="http://www.w3.org/2000/svg">
<path d="M17.1437 28.96C16.6553 28.96 16.1638 28.7876 15.7719 28.4398L11.9263 25.2006H8.92717C6.66372 25.2006 4.823 23.3599 4.823 21.0964V8.78288C4.82197 6.51943 6.66269 4.67871 8.92614 4.67871H25.3428C27.6063 4.67871 29.447 6.51943 29.447 8.78288V21.0954C29.447 23.3588 27.6063 25.1996 25.3428 25.1996H22.4166L18.4694 28.4624C18.0979 28.7928 17.6229 28.959 17.1427 28.959L17.1437 28.96ZM8.92614 6.7308C7.79442 6.7308 6.87406 7.65116 6.87406 8.78288V21.0954C6.87406 22.2271 7.79442 23.1475 8.92614 23.1475H12.3008C12.5429 23.1475 12.7769 23.2326 12.9626 23.3886L17.115 26.8874L21.3936 23.3824C21.5783 23.2306 21.8091 23.1475 22.0482 23.1475H25.3439C26.4756 23.1475 27.3959 22.2271 27.3959 21.0954V8.78288C27.3959 7.65116 26.4756 6.7308 25.3439 6.7308H8.92614Z" fill="#F2F2F3"/>
</svg>
