<svg width="34" height="34" viewBox="0 0 34 34" fill="none" xmlns="http://www.w3.org/2000/svg">
<path d="M16.1452 9.01755C16.3433 9.37557 16.7203 9.59776 17.1295 9.59776C17.5387 9.59776 17.9156 9.37557 18.1138 9.01755C18.6446 8.05849 19.4191 7.25647 20.359 6.6925C21.2895 6.13421 22.3495 5.82876 23.434 5.80613C25.1874 5.89104 26.8377 6.66193 28.0282 7.95319C29.2263 9.2526 29.8614 10.9734 29.7947 12.7395C29.7942 12.7537 29.7939 12.7678 29.7939 12.782C29.7939 15.0243 28.5982 17.5124 26.6974 20.0093C24.8168 22.4796 22.3584 24.8126 20.0837 26.7207L20.0829 26.7214C19.2557 27.4165 18.2099 27.7975 17.1295 27.7975C16.049 27.7975 15.0032 27.4165 14.1761 26.7214L14.1753 26.7207C11.9005 24.8126 9.44216 22.4796 7.56158 20.0093C5.66072 17.5124 4.46504 15.0243 4.46504 12.782C4.46504 12.7678 4.46477 12.7537 4.46424 12.7395C4.39759 10.9734 5.03266 9.25261 6.23071 7.95319C7.42123 6.66193 9.07152 5.89104 10.8249 5.80613C11.9094 5.82876 12.9694 6.13421 13.8999 6.6925C14.8399 7.25647 15.6144 8.05848 16.1452 9.01755Z" stroke="#F2F2F3" stroke-width="2.25" stroke-linejoin="round"/>
</svg>
