<svg width="34" height="34" viewBox="0 0 34 34" fill="none" xmlns="http://www.w3.org/2000/svg">
<path d="M23.4496 4.68066C22.1557 4.70079 20.8899 5.062 19.7802 5.72782C18.6705 6.39364 17.7562 7.3405 17.1295 8.47276C16.5028 7.3405 15.5884 6.39364 14.4787 5.72782C13.369 5.062 12.1033 4.70079 10.8093 4.68066C8.74658 4.77028 6.80314 5.67265 5.40361 7.19061C4.00407 8.70857 3.26218 10.7187 3.34004 12.782C3.34004 18.007 8.83972 23.7135 13.4523 27.5826C14.4822 28.4481 15.7843 28.9225 17.1295 28.9225C18.4747 28.9225 19.7768 28.4481 20.8067 27.5826C25.4192 23.7135 30.9189 18.007 30.9189 12.782C30.9968 10.7187 30.2549 8.70857 28.8553 7.19061C27.4558 5.67265 25.5124 4.77028 23.4496 4.68066Z" fill="#FF715B"/>
</svg>
